<svg id="Layer_1" data-name="Layer 1" xmlns="http://www.w3.org/2000/svg" viewBox="0 0 187.25 159.24"><defs><style>.cls-1{fill:#414042;}.cls-2{fill:#559cbd;}</style></defs><path class="cls-1" d="M25.56,183A38.48,38.48,0,0,1,9.85,169l21-18.1a22.86,22.86,0,0,0,7.64,6.66,19.22,19.22,0,0,0,9.16,2.33q7.05,0,10.89-4.5t3.85-12.73v-114H91.15V144.42q0,13.77-5.1,23.52a34.3,34.3,0,0,1-14.8,14.85q-9.69,5.1-23.35,5.1A49.7,49.7,0,0,1,25.56,183Z" transform="translate(-9.85 -28.65)"/><path class="cls-2" d="M101.82,28.65H130V186.26H101.82Zm16.37,130.41h28.94q10.08,0,15.55-5.15t5.48-14.69V75.7q0-9.54-5.48-14.69t-15.55-5.15H118.19V28.65H148.1q15.51,0,26.51,5.37a37.4,37.4,0,0,1,16.74,15.72q5.75,10.35,5.75,24.77v65.9q0,14-5.58,24.34a37.64,37.64,0,0,1-16.64,15.93q-11.06,5.58-26.88,5.58H118.19Z" transform="translate(-9.85 -28.65)"/></svg>